<?xml version="1.0" encoding="utf-8"?><svg xmlns:xlink="http://www.w3.org/1999/xlink" id="Scene_1" image-rendering="auto" baseProfile="basic" version="1.1" x="0px" y="0px" width="600" height="70" viewBox="0 0 600 70" xmlns="http://www.w3.org/2000/svg"><g id="Scene 1_1.0"><path fill="#FFF" d="M568.9,15.35Q567.45,14.55 567.2,14.45 567,14.95 566.25,14.95 566.4,15.25 566.25,15.65L566.15,16.4 565.6,16.4 565.4,16.25 565.4,17.95 565.55,18.55Q565.25,19.45 564.95,19.75 564.95,22.9 565.1,23.85 564.8,26.2 564.8,27.3 564.8,27.5 564.6,28.1L564.75,28.9Q564.85,29.65 564.8,29.85 565.1,29.7 565.1,30.05 564.75,31.55 564.8,32L565,32.6Q564.9,33.25 564.95,33.35L565.4,33.95Q565.4,38 565.3,38.1 564.4,38.05 563.35,38.45 563.4,38.45 563.05,38.85L562.7,38.5 562.05,39.1Q562.05,38.85 561.75,38.85 561.65,38.85 561.6,39 561.6,39.1 561.45,39.1 561.2,39.1 561.45,38.85 559.5,39.55 559.45,39.55L559.25,39.3Q558.7,39.85 558.5,39.9 558.5,40.1 558.2,41L558.2,41.15Q558.45,41.25 558.5,41.6L558.4,41.95Q558.7,42.5 558.7,42.8 558.7,43 558.45,43.25 560.85,44.65 560.9,45.25L562.9,45.4Q563.4,45.4 565.8,45.25 566.05,46.95 566.65,48.35 567.1,49.8 567,50.8 567.45,51.15 567.65,51.85 568,52.9 568.15,53.2 569.2,55.1 569.5,55.3 570,55.8 570.6,56.25 570.6,56.1 570.85,55.85L571.25,56.05Q571.25,56.298 571.05,56.3 571.252,56.302 571.45,56.6L573.05,55.9Q573.9,54.8 574.25,53.95 574.05,54.4 573.55,54.6 573.4,54.45 573.5,54.4 574.35,52.75 574.35,52.55 573.85,52.7 573.6,52.6L574.3,51.3 574.2,51.1 574.6,50.7Q574.7,50.2 574.7,49.7 574.45,49.85 573.4,51.35 572.7,52.55 572.1,52.8 571.85,52.55 571.7,52.55 571.7,52.75 571.45,52.95L571.25,52.8Q570.45,51.9 571.1,50.7 571,50.8 570.6,50.4L570.3,50.55Q570.6,50.1 570.6,50.05 570.2,48.85 570.2,48.95 570.2,48.3 570.5,47.7L570.05,47.6 570,45.15 570.6,46.05Q571.05,44.8 571.6,44.5 571.85,44.35 572.45,44.35 572.95,44.25 574.5,43.35 574.75,43.35 574.75,43.45 575,43.45 575.3,42.95L576.15,42.75Q576.4,42.75 576.4,42.85L577.85,42.5Q579.05,42 579.4,42L580.05,41.8Q580.4,42 580.6,41.9 581.05,41 581.55,40.9 581.15,40.9 581.35,40.7L582.55,40.7Q582.8,40.7 583.1,40.3 583.1,39.9 583.05,39.9 583.15,39.9 583.35,40.1 583.55,40.25 583.7,40.25L584.4,40.1Q584.55,40.1 584.95,39.8 585.35,39.45 585.5,39.45 585.6,39.45 585.65,39.45 586.2,39.2 586.65,38.9L587.2,38.95Q587.8,38.45 588.65,38.5 588.4,38.25 588.1,38.25 587.55,38.25 587.35,38.05L587.55,37.75 587.85,38.1Q587.85,37.75 588.2,37.75 587.7,37.35 587.4,37.65 587.2,37.45 587.45,37.25L586.4,37.75Q586,37.75 585.95,37.7 585.95,37.55 586.2,37.4 586.6,37.4 586.65,37.3L586.55,36.9 584.4,36.85 585.5,36.05Q584.501,35.85 583.05,35.85 583.193,35.854 582.3,36.3 582,35.85 581.3,35.85L579.6,36 579.2,36Q578.4,35.5 577.55,35.5 577.4,35.5 576.95,35.9 576.5,36.25 576.45,36.25 576.15,35.8 575.7,35.8 575.25,35.8 573.1,36.2L570.6,36.6Q569.45,36.6 569.9,35.65L569.6,35.45 570,35Q569.8,33.3 569.9,27.7 569.5,27.6 569.45,27.5 569.85,27.35 569.85,26.45L569.85,25.05Q570.3,22.75 570.3,21.9 570.6,20.95 570.5,20.7L572.45,19.5Q572.15,19.5 572.05,19.15 571.95,18.65 571.9,18.55 571.3,17.55 571.25,17.2 571.3,17.15 571.35,17.15L570.8,16.9Q570.8,16.75 570.95,16.65 570.7,16.1 569.65,15.8L569.25,16.1 569,15.85Q569.25,15.6 569.4,15.6 569.2,15.35 568.9,15.35 M583.95,37.85Q584.55,38.3 584.35,38.3L583.4,37.85 583.95,37.85 M584.3,37.45L583.9,37.65Q583.95,37.4 583.9,37.35L584.3,37.45 M579.2,37.2L579.3,37.6Q579,37.6 578.8,37.4L579.2,37.2 M566,16.85L565.55,17.05 565.55,16.85 565.85,16.65 566,16.85 M452.8,35.5L453,34.95 453.3,34.95 453,35.6 452.8,35.5 M436.05,38.1L435.6,38.3 435.6,38.1 435.95,37.9 436.05,38.1 M342.95,42.85L343.15,42.95 342.95,43.35 342.75,43.25 342.95,42.85 M343.6,43.35L343.6,43.75 343.35,43.75 343.35,43.35 343.6,43.35 M343.3,45.4L343.1,45.3 343.2,44.95 343.5,45 343.3,45.4 M28.15,50.4Q28.25,50.4 28.55,49.75 28.65,49.85 28.65,50.6L28.15,50.4 M49.75,53.95L49.75,54.95 49.25,54.85Q49.4,54.7 49.75,53.95"/><path fill="#FFF" d="M570.9,46.9L570.7,46.2Q570.55,46.55 570.4,47.05L570.9,46.9 M360.7,46.9L361.1,46.3Q361.35,47 360.9,47.45L360.7,46.9 M30.15,47.05Q31,46.85 30.9,45.9 31.2,46.95 31,47.5L30.15,47.4 30.15,47.05"/><path fill="#FFF" d="M574.2,56.3L572.75,56.8Q572.75,57.2 573.35,57.2 573.55,57.2 574.2,56.3"/><path fill="#FFF" d="M489.3,51.55Q489.3,51.75 489.1,51.8 489,52.05 488.85,51.8 489.3,51.2 489.3,50.5 489.15,50.6 488.3,51.4 487.55,52.1 487.25,52.15 487.35,52.15 486.95,52.55L486.65,52.3Q487.2,51.55 488,50.75 485.7,52.9 480.45,54.75 474.4,56.85 470.95,56.85 469.5,56.85 467,55.8 464.5,54.65 463.8,53.85L463.3,53.75Q462.95,53.4 462.9,53.15 461.7,52.35 461.05,50.6L460.1,47.7Q460.6,47.65 459.9,46.5 460.35,46 460.35,46.05 460.25,46.05 459.7,45.6L459.7,44.05 460.25,41.7 460.05,40.5Q460.5,38.7 460.7,38.25 461.25,32.2 461.5,31.2 462.45,26.95 463.35,24.55 463.9,23.5 464.3,23 465.7,18.95 466.35,18.05L466.45,17.5 469.4,14.15Q471.15,12.05 472.6,11.35L475.2,9.85Q477.1,8.65 478.05,8.65 478.75,8.65 479.6,9.3 479.95,10.45 480.1,10.6 479.8,10.9 479.8,11.2 480.65,11.65 480.65,11.7L479.8,12.4Q480.6,12.4 480.5,12.8L480.15,13.25 479.65,13 479.85,13.55Q479.45,15.2 479.6,15.9 479,17.6 478.3,17.9L478.1,17.6Q477.2,20 476.6,23 476.85,23.4 476.75,23.45L476.55,23.75Q476.55,23.45 477.25,28.5 477.3,29.55 478.1,29.55 478.45,29.55 478.7,29.45 479.05,29.45 479.9,29.9 480.95,29.05 481.55,28.35 482.05,26.85 482.05,25.8 482.05,25.15 481.75,24.85L482.05,21.5Q482.8,19.7 482.75,19.45 482.5,19.25 482.5,19.05 483.4,14.75 483.35,13.95L483.35,12.3Q482.95,12.4 482.95,12.95L482.95,13.85Q482.25,16.2 482.1,16.6 482.05,16.9 481.65,16.9L481.3,16.65Q482.15,14.6 482.15,13.85 482.15,13.45 481.9,13.45 481.9,14 481.5,14 481.9,10.7 482.05,10.35 481.9,10.1 481.45,9.65L481.55,9.3Q481.25,7.65 478.7,7.65 477.55,7.65 473.8,9.1 473.45,9.3 472.95,9.65L471.75,9.75Q469.8,10.3 468.65,10.95 464,14.25 462.5,15.6 462.15,15.85 461.85,16.5 461.25,16.7 460.65,17.65L459.8,18.95Q457.1,21.7 455.15,23.25 454.85,24 454.85,24.35 452.05,27.95 452.05,28.85L452.25,29.7Q452.7,30 452.9,30.35 452.25,30.95 452.05,31.4 452.4,31.4 452.3,31.7 451.25,33.85 450.9,35.45 449.8,38.75 449.9,39.75L450,42.55 449.65,43 449.65,45 450.5,44.8Q450.5,45.45 450.4,45.9 450.45,45.75 450.7,45.5L450.95,45.85Q450.95,46.15 450.5,46.3 450.9,47.1 450.65,47.45 450.15,47.1 450.1,47.1L450.9,48.05 451.05,49.5 451.3,49.25 451.3,47.75 451.95,48.05Q451.65,46.75 451.15,45.6 451.3,45.1 451.45,44.95 451.05,44.3 451.05,44.2 451.05,41.4 450.45,40.5L450.7,40.25 451.1,40.35Q451.1,39.9 451.15,39.9 451.9,41.15 451.95,42L451.95,43.45Q451.95,44.55 452.35,44.55L452.55,44.55Q452.6,44.55 452.55,44.6L452.5,44.75Q451.85,45.7 451.85,46.4 453,47.25 453.15,47.45 453.15,47.55 453.45,48.05 453.7,48.5 453.7,48.65 453.7,49.1 453.6,49.15L452.35,48.45Q452.25,49.8 452.9,51.3 452.9,51.55 452.15,51.55L454.1,54.2Q455.15,54.95 455.4,55.05 455.4,56.3 456.15,56.3 456.4,56.3 456.45,56.2 456.75,56.2 457.25,56.8 457.2,57.1 457.5,58.15 457.6,58.15 458.05,58.05 458.4,58.05 459.25,58.95 459.3,59 459.95,59.05 460.6,59.15 460.75,59.5L460.45,59.9Q461.05,59.9 461.8,60.35L462.5,60.8 462.7,60.7Q462.7,60.6 462.9,60.6 463.45,60.6 463.15,61.3 463.6,60.95 464.7,60.95 464.95,60.95 465.2,61.25 465.05,60.95 465.75,60.95L465.95,60.95 466,61 465.95,61Q466.6,61.45 467.65,61.2 468.2,61.8 468.4,61.8L468.9,61.8 469.4,60.95Q470.15,61.7 470.05,62 470.6,61.45 471.1,61.15 471.45,61.6 471.5,61.8 471.5,61.5 471.7,61.5 471.9,61.5 471.95,61.7L472.15,61.8Q472.5,61.8 473,61.3L473.35,61.6Q473.45,61.6 473.65,61.2 473.85,60.85 474,60.8L474.6,61.3Q474.6,61.05 475.05,60.6L475.25,60.8Q475.4,60.95 475.6,60.95L476.15,60.95 476.25,60.6 476.45,60.95Q477.05,59.9 477.15,59.55 477.95,59.7 478.4,59.55L478.4,60.15Q478.05,60.5 478.25,60.8 478.6,59.95 479.2,59.9 480.85,59.6 481.45,59.35 481.8,58.55 482.95,57.7L484.8,56.45Q486.3,55.05 487.15,54L486.45,54 488.7,51.9 488.2,53.05Q489.4,52 489.3,51.55 M486.65,52.5L486.45,52.95 486.2,52.8 486.45,52.4 486.65,52.5 M481.85,17.65L482.1,17.65 481.55,18.65 481.35,18.5 481.85,17.65 M478.4,18.05L478.65,18.3 478.45,18.5 478.2,18.25 478.4,18.05 M456.6,28.05Q456.6,28.5 456.2,28.9L455.6,27.95Q455.85,27.85 456.15,27.95L456.6,28.05 M454.8,26.45L454.5,26.45 454.5,25.65 454.8,25.65 454.8,26.45 M454.5,32.7L453.9,34.05 453.7,33.95 454.2,32.7 454.5,32.7 M452.15,35.05L451.95,35 452.15,34.4 452.4,34.4 452.15,35.05 M452.8,35.5L453,34.95 453.3,34.95 453,35.6 452.8,35.5 M452.6,36.5L452.8,36.1 453.1,36.2 452.9,36.65 452.6,36.5 M451.9,38.15L452.3,39.15 452.4,39.15Q452.2,40.25 451.9,40.75L451.9,38.15 M452.8,44.4L453,44 453.3,44.05 453,44.55 452.8,44.4 M480.75,58.45L480.75,59.05Q480.15,58.55 480.15,58.25 480.35,58.45 480.75,58.45 M481.45,58.15L481.7,58.45 481.5,58.65 481.3,58.35 481.45,58.15 M456.2,55.15Q455.6,54.55 455.6,54.35L456.45,54.45Q456.45,54.95 456.2,55.15 M458.2,57.4Q458.6,57.4 458.65,57.65 458.75,57.85 458.6,57.9L458.4,58.05Q458.2,57.8 458.2,57.4 M462.25,60.3L461.95,60.15 462.3,59.55 462.5,59.7 462.25,60.3 M465.6,60.2L465.75,60.4 465.35,60.8 465.15,60.6 465.6,60.2 M368.7,13.25L368.5,12.75 368.7,12.75 368.7,13.25 M30.15,45.9Q30.4,45.55 31,45.3 30.7,46.1 30.3,46.4 30.3,46.1 30.55,45.85 30.45,45.75 30.15,45.9 M25.85,56.2Q25.65,56.05 25.2,56.05L25.9,55.85 26.05,56.6Q25.75,56.4 25.85,56.2"/><path fill="#FFF" d="M487.15,53.6L487.25,53.8 488.05,53 487.85,52.85 487.15,53.6"/><path fill="#FFF" d="M414.85,19.75Q414.85,21.9 415,23.85 414.75,25.8 414.75,27.3 414.75,27.5 414.55,28.1 414.55,28.3 414.75,29.85 415,29.75 415,30.05 414.7,31.4 414.75,32L414.95,32.6Q414.8,33.15 414.85,33.35L415.35,33.95Q415.35,37.95 415.2,38.1 414.3,38.05 413.3,38.45 413.35,38.45 412.95,38.85L412.6,38.5 411.95,39.1Q411.95,38.85 411.7,38.85 411.6,38.85 411.55,39 411.5,39.1 411.35,39.1 411.1,39.1 411.35,38.85 410.5,39.15 409.4,39.55L409.2,39.3Q408.65,39.85 408.45,39.9 408.45,40.1 408.1,41L408.1,41.15Q408.4,41.25 408.45,41.6 408.35,41.95 408.3,41.95 408.65,42.55 408.65,42.8 408.65,43 408.4,43.25 410.7,44.65 410.85,45.25L412.8,45.4Q413.35,45.4 415.75,45.25 415.9,46.7 416.6,48.35 417,50 416.95,50.8 417.35,51.15 417.55,51.85 417.85,52.85 418.05,53.2 419.05,55.05 419.45,55.3 419.9,55.8 420.5,56.25 420.5,56.1 420.75,55.85L421.15,56.05Q421.15,56.296 420.95,56.3 421.202,56.304 421.35,56.6L422.95,55.9Q423.65,54.95 424.05,54.2 423.85,54.45 423.5,54.6 423.3,54.5 423.4,54.4L424.3,52.55Q423.8,52.7 423.55,52.6 424.15,51.6 424.2,51.3L424.15,51.1Q424.4,50.75 424.55,50.7L424.6,49.7Q424.4,49.85 423.35,51.35 422.6,52.55 422.05,52.8 421.8,52.55 421.65,52.55 421.65,52.75 421.35,52.95 421.3,52.8 421.15,52.8 420.35,51.85 421.05,50.7 420.95,50.75 420.5,50.4L420.25,50.55Q420.5,50.1 420.5,50.05 420.106,48.721 420.1,48.95 420.102,48.395 420.45,47.7L419.95,47.6 419.9,45.15 420.5,46.05Q421,44.8 421.55,44.5 421.75,44.35 422.35,44.35 422.9,44.25 424.4,43.35 424.65,43.35 424.65,43.45 424.95,43.45 425.2,42.95L426.05,42.75Q426.35,42.75 426.35,42.85L427.8,42.5Q429,42 429.3,42 429.55,42 429.95,41.8 430.4,42 430.5,41.9 431.05,40.95 431.5,40.9 431,40.9 431.3,40.7L432.5,40.7Q432.7,40.7 433,40.3 433,39.9 432.95,39.9 433.05,39.9 433.25,40.1 433.45,40.25 433.6,40.25 433.9,40.25 434.35,40.1 434.5,40.1 434.9,39.8 435.3,39.45 435.4,39.45 435.55,39.45 435.65,39.5L435.6,39.45 436.6,38.9 437.15,38.95Q437.7,38.4 438.6,38.5 438.3,38.25 438.05,38.25 437.55,38.25 437.25,38.05L437.45,37.75 437.8,38.1Q437.8,37.75 438.1,37.75 437.65,37.3 437.3,37.65 437.15,37.45 437.4,37.25L436.35,37.75 435.85,37.7Q435.85,37.55 436.15,37.4 436.55,37.4 436.6,37.3L436.45,36.9 434.35,36.85 435.4,36.05Q434.401,35.85 432.95,35.85 433.093,35.854 432.2,36.3 432,35.85 431.25,35.85L429.5,36 429.1,36Q428.4,35.5 427.45,35.5 427.3,35.5 426.85,35.9L426.4,36.25Q426.1,35.8 425.6,35.8 425.15,35.8 423,36.2L420.5,36.6Q419.3,36.6 419.85,35.65 419.75,35.65 419.5,35.45L419.9,35Q419.7,33.1 419.85,27.7 419.45,27.6 419.4,27.5 419.75,27.35 419.75,26.45L419.75,25.05Q420.25,22.5 420.25,21.9 420.55,21.05 420.45,20.7L422.35,19.5Q422.05,19.5 422,19.15 421.95,18.65 421.85,18.55 421.25,17.55 421.15,17.2 421.2,17.15 421.3,17.15L420.7,16.9Q420.7,16.7 420.9,16.65 420.55,16.1 419.6,15.8 419.25,16.1 419.2,16.1L418.9,15.85Q419.15,15.6 419.3,15.6 419.1,15.35 418.85,15.35 417.4,14.55 417.15,14.45 416.95,14.95 416.2,14.95 416.25,15.25 416.2,15.65L416.05,16.4 415.55,16.4 415.35,16.25 415.35,17.95 415.45,18.55Q415.15,19.45 414.85,19.75 M415.8,16.65L415.95,16.85 415.45,17.05 415.45,16.85 415.8,16.65 M434.3,38.3L433.35,37.85 433.9,37.85Q434.5,38.3 434.3,38.3 M434.2,37.45L433.8,37.65Q433.95,37.4 433.9,37.35L434.2,37.45 M429.1,37.2L429.25,37.6Q429,37.6 428.7,37.4L429.1,37.2 M342.95,42.85L343.15,42.95 342.95,43.35 342.75,43.25 342.95,42.85 M343.6,43.35L343.6,43.75 343.35,43.75 343.35,43.35 343.6,43.35 M343.3,45.4L343.1,45.3 343.2,44.95 343.5,45 343.3,45.4 M28.15,50.4Q28.25,50.4 28.55,49.75 28.65,49.85 28.65,50.6L28.15,50.4"/><path fill="#FFF" d="M420.3,47.05L420.85,46.9 420.65,46.2 420.3,47.05"/><path fill="#FFF" d="M423.3,57.2Q423.5,57.2 424.15,56.3L422.7,56.8Q422.7,57.2 423.3,57.2"/><path fill="#FFF" d="M477.85,60.2L477.25,60.2 477.25,60.5 477.85,60.5 477.85,60.2"/><path fill="#FFF" d="M460,59.45L460,59.9 460.3,59.9 460.3,59.45 460,59.45"/><path fill="#FFF" d="M451.55,50.8L451.9,50.8 451.9,50.05 451.55,50.05 451.55,50.8"/><path fill="#FFF" d="M369.85,15.9Q369.85,15.65 369.65,14.65 369.75,15.45 369.55,16.2 369.65,16.05 369.85,15.9"/><path fill="#FFF" d="M370.25,16.3L369.95,16.3 369.95,16.85 370.25,16.85 370.25,16.3"/><path fill="#FFF" d="M363.7,31.35L363.85,30.95 363.7,30.9 363.5,31.3 363.7,31.35"/><path fill="#FFF" d="M346.65,55.7L346.45,55.8 346.65,56.2 346.85,56.2 346.65,55.7 M25.85,56.2Q25.65,56.05 25.2,56.05L25.9,55.85 26.05,56.6Q25.75,56.4 25.85,56.2"/><path fill="#FFF" d="M285.15,50.9L285,50.7 284.6,51.1 284.75,51.2 285.15,50.9"/><path fill="#FFF" d="M366.15,7.9L365.2,7.45Q365.2,7.75 365,7.9L364.95,8.75 364.55,9.45Q364.55,10.25 365.55,12.7L365.2,12.8Q365.8,13.2 365.65,14.2L365.55,13.95 365.8,15.45 365.75,16.65Q365.6,17.25 366,17.7L366,22.2Q365.25,23.6 365.6,24.35 365.25,24.9 365.25,25.25L365.25,25.7Q365.45,25.7 365.6,25.85 365.05,26.4 365,26.6 365.2,26.8 365.45,26.85L364.75,27.25 364.05,30.25 364.25,30.55 364.2,31.4 363.1,32.75Q362.2,35.4 361.95,36.6 361.6,36.9 361.4,36.9 361.45,37.15 361.35,37.75 361.15,38.25 360.75,38.85L360.65,39.7 359.05,43.8 358.05,45.2Q357.65,45.85 357.7,46.45 356.9,47.35 356.35,48.4 356.05,48.95 355.55,48.95 354.45,51.25 353.7,52.4 353.35,52.75 353.2,52.8 353.05,53.65 352.05,54.4 351,55.15 350.15,55 349.15,54 348.25,51.55 347.35,48.85 346.5,47.85 347,47.65 346.7,47.2 346.05,45.85 346,45.6L345.25,42.2 344.8,41.35Q344.75,40.45 344.8,40.05 344.5,38.2 344.2,37.3 343.85,33.35 343.95,30.95L343.6,30.7Q343.8,30.45 343.8,29.35 343.6,28.7 343.6,28.65 343.75,27.9 343.75,25.4 343.402,24.454 343.4,24.25 343.402,24.393 343.7,23.25 343.85,22.4 343.6,21.95 343.9,18.05 343.9,15.9 344.693,15.504 344.55,15.5 344.845,15.501 344.85,15.65L344.85,14.4Q344.4,14.1 344.4,13.85 344.4,13.7 344.7,13.35L345,12.95Q344.65,12.75 344.55,12.2 342.1,11.25 340.65,10.25 340.3,10.9 340.1,10.95L339.1,10.5Q338.8,10.5 336.5,11.95 336.65,12.35 336.25,12.85 335.9,13.25 335.2,13.8L334.2,15.7 333.1,17.05Q332.95,17.4 332.55,17.9 332,19.35 331.55,20.15 330.3,23.75 329.85,24.35 329,27.15 328.85,27.45 328.7,29.2 328.4,29.9 327.5,31.8 327.5,33.35 326.65,34.05 326.65,36.2 326.65,36.8 326.85,37.05L326.15,37.65Q326.15,38.6 325.55,39.7L324.6,43.65Q323.95,44.95 323.4,45.5L322.4,40.05 322.4,32.5 322.7,31.9Q322.75,28.6 322.6,25.4L322.8,24.8 323.4,15.05Q323.55,14.35 323.95,14.35L326,18.3 327.1,19.1Q326.8,18.55 326.5,18.3L326.9,18.05Q327.2,18.35 327.45,18.35 327.7,18.35 328.65,16.8 328.1,16.35 328.1,15.9L328,13.65 327.2,12.35Q326.4,9.75 325.05,8.25L325.25,7.85Q325.55,8.15 325.8,8.05 325.35,7.45 325.35,7.1L324.8,7.1Q324.85,7.25 324.8,7.45L324.6,7.6 324.6,6.4Q324,6.85 324,7 323.65,6.65 323.35,6.65 322.7,7 322.5,7 322.3,7 321.9,6.55 321.55,6.1 321.5,6.1 320.3,6 319.75,5.9L318.1,6.4Q318.65,7.5 318.8,8.1L318.9,28.5Q318.9,33.25 319.75,41.2 320.15,43.95 320.7,46.65L321.15,47.85Q321.25,48.2 321.1,48.55 321.15,48.9 321.95,51.15 322.6,52.8 322.6,53.6 322.6,54.15 322.35,54.6 322.45,55.1 323,55.5L322.8,55.65Q323.2,56.05 323.3,56.6 323.35,57.5 324.45,58.75 325.75,60.35 327.2,60.35 329.1,60.35 328.65,55.65 329.9,46.7 330.7,39.7 331,38.2 331.45,36.7 331,36.6 331.1,35.9 331.35,36.15 331.35,36.4 331.9,33.55 333.15,29.25 333.45,28.15 333.9,27.45 334,27.15 333.9,26.85L335.8,22.85Q336.65,20.95 337.5,19.35 337.95,18.55 338.45,18.5L338.7,18.75Q339.3,25.65 339.35,28.75L339.25,29.5Q339.35,30.05 339.45,30.1L339.65,33.4 339.95,33.8 339.85,35.15Q340.55,39.25 341.25,41.8 341.6,42.15 341.75,42.2 342.05,44.95 342.6,46.1 342.75,46.4 342.6,46.65L343,47.4Q343.1,48.35 343.5,49.5 344.75,52.6 346.25,55.45 347.25,55.75 347.25,56.25 347.25,56.397 347.2,56.675 347.214,56.65 347.3,56.65 347.85,57.8 347.7,58.25L348.05,57.95Q348.75,59.5 349.5,59.5L349.65,60.1Q350.95,61.1 351.55,61.1 351.7,61.1 351.7,61L351.9,60.95Q352.15,60.95 353.55,61.5 353.9,61.5 354.25,60.75 354.45,60.85 354.25,60.95 354.25,61.1 354.45,61.1L355.2,61.1Q355.4,61.1 356.05,60.55 356.2,60.45 356.05,60.3L358.1,58.05Q358.65,56.05 359.5,56.2 359.3,55.75 359.35,55.25 360.3,54.85 360.35,53.65 360.5,52.65 360.75,52.6 360.9,52.8 361.15,52.75 360.8,52.25 361.4,51.6L361.15,51.4Q361.35,51 361.7,50.75L361.55,50.35Q361.8,49.95 362.4,49.95 362.5,49.9 362.5,48.95 362.5,48.3 362.7,48.05L362.9,48.05 363.85,45.45Q363.8,45.3 363.6,44.85 363.75,44.25 364.15,44L364,41.95 364.25,41.7Q364.35,41.85 364.55,42.6 364.4,41.55 364.85,41.4 365.25,41.8 365.25,42.1L365.05,43.45Q365.8,42.25 365.65,41.95 365.55,40.65 365.45,40.4 365.7,40.65 366.2,39.55 366.2,39.4 366.05,39.2 365.85,39 365.85,38.95 366.1,38.7 366.25,38.7 366.15,38.15 366.05,38.1 366.35,36.35 366.3,36.2 366.55,35.9 366.65,35.9 366.65,36.45 366.85,36.65 366.75,36.3 367.45,34.55 367.55,34.25 367.85,34.15L367.9,32.75Q368.2,32.1 368.2,32L368.2,30.9Q368.25,30.1 368.75,29.7 368.9,29.95 368.9,30.15 369,29.35 369.55,28.45L369.15,28.1Q369.1,29 368.65,29.3L368.4,29.05 368.4,28.15Q369,27.7 369.25,27.65 369.1,27.05 369.25,26.8L369.7,26.8 370.1,23.25Q369.9,23.2 369.95,22.5L370.45,22.6 370.45,21.6Q370.35,21.15 370.35,20.55L369.85,21.6 369.55,20.8Q369.75,20.7 370.1,20.7 370.35,20.7 370.45,19.45L369.95,19.7 369.7,19.5 369.9,19.95 369.5,19.65 369.7,19.5 369.45,19.3 369.45,18.9 369.5,18.75Q369.8,18.75 369.95,19.25L370.1,18.05Q370.2,17.35 370.1,17.05 370.1,17.3 369.85,17.3 369.75,17.3 369.45,16.7 369.45,17.25 369.35,17.3 368.95,16.5 369.25,15.65 368.8,15.35 368.9,13.85 369,12.35 368.85,12 368.2,11.7 367.9,10.8L367.45,9.5Q366.3,8.65 366.15,7.9 M369.9,19.95L369.5,19.65 369.7,19.5 369.9,19.95 M368,12.2L367.6,12.1 367.8,11.95 368,12.2 M368.7,13.25L368.5,12.75 368.7,12.75 368.7,13.25 M368.65,21.15L368.9,21.15 368.9,21.55 368.65,21.55 368.65,21.15 M369.3,22.3L369.3,22.6 369.25,23.05Q368.75,22.85 368.7,22.85 368.85,22.65 369.05,22 369.05,22.35 369.3,22.3 M370.35,21.6L370.15,22.3 369.95,22.3 370.1,21.6 370.35,21.6 M368.4,25.35L368.2,25.2 368.5,24.65 368.7,24.8 368.4,25.35 M368.7,27.5L368.5,26.9 368.7,26.9 368.7,27.5 M365.65,27.25L365.95,27.25 365.95,27.65 365.65,27.65 365.65,27.25 M366.65,29.65L367.25,29.85Q367,29.85 367,30.15L366.65,29.65 M367,28.5L366.7,28.5 366.7,27.95 367,27.95 367,28.5 M366.15,31.8L366.4,31.8 366.4,32.35 366.15,32.35 366.15,31.8 M366.05,31.8L365.95,32 365.65,31.75 365.85,31.6 366.05,31.8 M365.8,31.55L366.15,30.9 366.4,30.95 366.05,31.7 365.8,31.55 M364.8,32.45L365.15,32.8 365.25,32.95 364.25,32.6Q364.4,32.1 364.8,31.8 364.8,32.35 364.8,32.45 M364.75,33.95Q364.65,34 364.8,34.25L364.8,34.45 364.6,34.75 364.6,33.25Q365.05,33.5 364.75,33.95 M364.75,36.5L364.45,36.5 364.65,35.8 364.95,35.8 364.75,36.5 M365.95,34.25L365.95,33.75Q366.7,34.05 366.25,34.45L365.95,34.25 M366.8,30.95L367.2,30.75Q367.45,31.5 367.1,32.2 366.9,31.8 366.8,30.95 M369.15,25.85L369.15,23.55Q369.7,25.2 369.7,25.4 369.7,25.85 369.15,25.85 M365.05,38.3Q365.55,39.65 365.55,40.05L365.25,39.7Q365.15,39.75 364.55,40.05L364.8,38.45 365.05,38.3 M364.8,40.95Q364.5,40.95 364.25,41.1L364.8,40.25 364.8,40.95 M342.95,42.85L343.15,42.95 342.95,43.35 342.75,43.25 342.95,42.85 M343.6,43.35L343.6,43.75 343.35,43.75 343.35,43.35 343.6,43.35 M343.3,45.4L343.1,45.3 343.2,44.95 343.5,45 343.3,45.4 M363.55,36.1L363.35,36.7 363.15,36.6 363.35,36.1 363.55,36.1 M363.3,35.35L363.35,35.5 362.95,35.7 362.95,35.45 363.3,35.35 M361.05,40.95L360.85,40.9 360.95,40.5 361.25,40.55 361.05,40.95 M362.4,43.65L362.2,44.45 361.95,44.45 362.15,43.65 362.4,43.65 M361.1,48.5L361.35,48.5 361.35,49.1 361.1,49.1 361.1,48.5 M360.7,46.9L361.1,46.3Q361.35,47 360.9,47.45L360.7,46.9 M360.05,54.45L359.85,54.85 359.65,54.8 359.75,54.4 360.05,54.45 M359.05,52.1L359.3,52.1 359.3,52.75 359.05,52.75 359.05,52.1 M132.45,57.95L132.85,57.75 132.95,57.95 132.45,58.15 132.45,57.95 M297.2,52.75L297.25,51.95Q297.25,52.15 297.55,52.6L297.5,52.6 297.2,52.75"/><path fill="#FFF" d="M128.05,22.15Q128.15,22.1 128.9,22 129.6,21.9 129.6,21.35L129.3,20.95 127.25,20.95Q123.95,20.95 118.95,22.1 117.55,22.8 117.25,23.05 114.8,24.05 114.7,24.15 114.25,24.45 114.25,25.3 114.25,25.5 114.7,26L114.45,26.1Q114.35,26.1 114.45,26.5 115,26.5 115.3,26.9L115.7,27.65 116.1,27.3 116.95,28.9Q116.95,28.55 117.35,28.55L118.75,28.95Q118.6,29.15 118.7,29.35 118.7,28.9 119.3,28.9 119.45,29.3 120.1,29.85 120.4,29.65 121.5,29.9 122.4,30.1 122.85,30.35 123.65,29.3 123.65,29.05L123.65,28.5Q121.85,26.85 121.75,26.5L122.35,25.45Q122.6,25.25 122.95,25.25L123.75,24.4Q125.8,23.3 127.1,22.75 127.85,22.65 127.9,22.7 127.95,22.25 128.05,22.15 M116.5,27.65L116.5,27.2 116.75,27.2 116.75,27.65 116.5,27.65"/><path fill="#FFF" d="M42.2,17.05Q42,17.2 41.75,17.2 41.35,17.2 38.95,16.45L38.95,16.05Q38.6,16.05 38.35,16.2 37.85,16 36.95,16.8 36.5,17.9 36.45,18.3 36.55,19.65 36.3,20.25 35.7,21.7 35.7,22 35.65,22.85 35.7,23.35 35.65,23.55 35.3,24.05 35.3,24.6 35.5,25 34.75,27.4 34.45,29.55L33.8,31.35Q33.85,32.45 33.8,32.95L33.35,33.35 33.05,33.15Q33.25,33.15 33.15,32.55 33,33.6 32.35,34.8 32.65,34.8 32.95,35.2 32.85,35.25 32.75,35.5 32.55,35.35 32.2,35.2 32.2,35.5 31.9,36.65 31.6,37.8 31.6,38.05 31.6,38.4 31.75,38.7L31.35,39.15Q30.8,40.55 30.75,41.1 31.2,41.35 31.1,41.8 30.95,42.65 30.55,43.15 30.5,42.45 30.25,41.85 29.95,41.3 29.95,41.15L30.5,40.25Q30.95,39.55 30.5,39.25 30.35,39.35 30.5,39.65 29.55,41.4 29.55,41.7 29.55,42.05 30.1,42.5L30.2,42.2Q30.3,42.3 30.3,42.55 30.3,42.75 30,43.3 29.65,43.8 29.5,43.85 29.4,43.2 29.55,42.35L28.35,44.15Q28.65,44.55 28.35,44.85 28.75,44.85 29.2,45.3 28.7,44.6 28.65,44.4L28.9,44.15Q28.95,44.15 29.3,43.85 29.35,43.95 29.2,44.05 29.15,44.15 29.35,44.15 29.7,44.15 29.7,44L29.8,45.15 29.5,47Q29.15,46.65 29.15,46.05 29.15,45.65 28.65,45.65 28.15,45.65 28.65,45.25 28.65,44.6 28.25,45.8 27.9,45.45 27.7,45.4 27.9,45.8 27.5,46.5L27.15,46.4Q27.3,47.1 26.1,48.75 24.75,50.7 24.6,51.55 24.1,51.85 23.8,52.2 23.85,53.25 22.95,53.8 22.65,53.5 22.65,53.2 21.85,54.25 21.75,54.8L21.45,54.55Q19.7,56.3 19.2,56.3L18.5,56.3Q17.5,56.3 17.5,55.45L17.5,55.4Q17.3,55.6 17.05,55.6L16.5,53.95Q15.85,49.65 15.85,49.35 15.45,49.3 15.45,49.05 15.45,48.75 15.5,48.85L15.7,49.05 15.85,45Q15.2,44.15 15.2,43.4 15.45,42.4 15.5,42.15L15.3,39.05Q15,37.45 15,37.2L15.2,35.3Q15.45,33.75 15.45,32.7 15.55,32.8 15.65,32.35L15.5,31.6Q16.1,28.7 16.1,27.9L16.1,26.3 16.45,25.85Q16.45,25.05 16.5,24.65 16.6,23.95 17.15,23.4L16.95,23.25Q16.85,23.15 16.65,22.75 17.3,22.45 17.15,21.75L17.1,20.8 17.65,19.95Q17.7,19.95 17.75,20.05 17.85,20.15 18.05,20.15 18.45,20.15 18.45,19.75 18.55,18.4 19.2,18.05L20.1,14.8Q20.2,14.75 20.75,14.15 21.25,13.6 21.4,13.6 21.6,13.6 22.25,13.95 22.5,13.95 23.45,13.15L23.9,12.35Q24.2,11.55 24.2,11.35L23.8,10.55 23.55,8.85Q23.25,7.25 22.55,7.25 22.35,7.25 22.3,7.35L22.25,7.45Q22.3,6.9 21.7,6.5 21.55,6.4 20.4,5.8 20,5.3 18.95,4.25L18.5,4.15Q18.1,4.35 17.85,4.35 17.7,4.35 17.55,4.2 17.4,4 17.3,4L16.4,4Q16.55,4.3 16.25,4.6 16,4.35 15.6,4.35L14.9,4.85 14.85,5.6Q14.8,6.15 14,6.6L14.2,7.45Q13.95,8.45 13.95,9.25L13.2,10.9Q12.4,15.3 11.8,21.1 11.7,22.7 11.65,22.85L11.85,23.45 11.65,25.25 11.5,25.6 11.5,36.2Q11.5,36.45 11.85,37.7 11.85,40.15 11.8,39.95L12.15,42.35 12,43 12.45,45Q12.35,46.4 12.2,46.9L12.55,49.45Q12.85,49.55 12.85,49.65 12.75,50.6 13.4,51L13,51.8 13.35,52.4Q13.55,54.7 13.55,53.8 13.55,54 14,55.2 14,55.45 13.85,55.85 13.95,55.85 14.3,55.5 14.45,55.95 14.3,56.1L14.65,56.4Q14.5,57.25 14.75,57.7 15,58.2 16,59.05 16.8,59.75 16.95,60.7 17.85,61.05 19.8,62.5L20.4,61.95 20.6,62.15Q20.6,62.5 20.35,62.75L20.75,62.95 22.2,61.6 22.55,61.95 22.65,61.3Q22.75,61.3 23.15,61.5 23.85,61.5 24.85,59.75 24.95,59.4 25,59.35 26.9,57.55 26.95,57.05L27.3,57.2Q26.95,56.8 26.95,56.7 27.25,56.45 27.7,55.85 28,56.3 27.95,56.3 28.55,56.05 28.75,54.55L28.45,54.8Q28.3,54.75 28.75,54.2L28.425,54.25Q28.75,54.189 28.75,53.85 28.5,53.15 28.5,52.8 28.5,52.3 28.95,52 29.15,52.4 28.85,53.15L29.9,51.7 30.15,51.95Q29.55,52.85 29.55,53.25 29.55,53.6 29.75,53.6 30.3,52.7 30.35,52.15L30.55,52.4Q30.15,51.25 31,50.75L31,50.2 30.4,50.15Q30.7,49.1 30.7,48.7L30.95,49.3 31.6,48.65Q31.3,48.65 31.25,48.55L31.15,48.25Q31.6,47.75 31.85,47.85L32.2,46.7Q31.85,46.7 31.6,46.45L31.95,45.8Q32.5,46.35 32.75,46.85 32.5,46.15 33.25,45.8 33.85,46.4 34,46.4L34.25,46.6 34,46.85Q33.8,48.9 34.6,49.7 34.45,50.3 34.6,50.4 35,51.1 35.05,51.8L35.5,52.35Q35.45,52.8 35.9,53.75L36.55,54.35Q36.7,54.95 37.1,55.45L39.2,57.95Q41,59.55 41.3,59.95L41.85,59.55 42.65,60.75Q42.65,60.3 43,60.3L43.6,60.4Q43.6,60.95 43.55,61.05L45.2,61.5 45.3,61Q45.45,61.15 45.45,61.5 45.5,60.85 46.05,60.55L46.35,60.7Q46.35,60.25 46.75,59.95 47.05,60.3 47.1,60.4 47.1,60.1 47.35,59.85L47.65,60.15 48.15,59.7Q48.55,59.55 48.65,58.95 48.75,58.35 48.75,58.25L49.15,58.5Q49.15,57.75 49.35,57.6L50.2,57 50.95,54.65Q50.45,55.2 50.2,55.25 50.2,54.9 50.45,54.3 50.7,53.7 50.7,53.6 51.1,53.75 51.2,53.9L51.15,53.6Q51.15,53.3 51.55,52.55 52,51.8 52,51.7L51.55,52.15Q51.05,51.75 50.9,51.7 50.95,52 50.15,52.5 50.1,52.95 49.75,53.2 49.5,52.35 49.4,52.3 48.8,54.05 47.9,53.95L48.65,52.95 48.45,52.6Q47.6,52.65 47.3,53.6L45.1,55.05Q44,55.5 42.95,55.5 42.6,55.5 42,54.85 40.85,52.95 40.7,52.6 40.7,51.65 40,49.05L39.55,49.15 39.3,48.9Q39.3,48.8 38.95,49.15 38.55,48.5 38.55,48.1 38.9,48.05 39,47.6 39.15,47.3 39,46.7L38.9,45.7Q39.35,45.25 39.4,45 39.5,44.75 39.2,44.45 39.2,44.6 38.85,44.75L38.85,43.95Q39.2,43.55 39.3,43.55 38.85,43.15 38.85,42.75 39.2,41.9 39.2,41.7 39.15,40.25 39.3,40.05 38.9,40.3 38.7,40.3L38.7,38.9Q39.2,38.15 39,37.85L38.9,37.1Q39.35,35.3 39.4,34.85L39.15,34.75 39.55,34.35 39.75,33Q39.75,32.85 39.45,32.7 39.15,32.5 39.15,32.4 39.55,32.25 39.75,31.75 39.05,31.05 39.5,30.5 40.3,29.15 40.4,28.5L40.55,26.9 40.8,26.6Q41.15,25.3 41.15,25L41.6,24.05Q42.2,21.75 42.45,21.3 44.05,19.65 44.05,19.45 44.05,19.2 43.9,18.75 43.75,18.3 43.6,18.15 43.4,17.9 42.9,17.5 42.35,17.05 42.2,17.05 M566,16.85L565.55,17.05 565.55,16.85 565.85,16.65 566,16.85 M415.8,16.65L415.95,16.85 415.45,17.05 415.45,16.85 415.8,16.65 M14.5,35.7Q14.45,36.7 14.25,37.5 14.25,37.15 14.15,36.75 14,36.45 14,36.4 14,36.35 14.5,35.7 M14.6,35.3L14.4,35.05 14.5,34.95 14.8,35.15 14.6,35.3 M14.65,39.7L14.65,39.15 14.9,39.15 14.9,39.7 14.65,39.7 M13.95,40.5L14.2,40.5 14,41.3 13.8,41.3 13.95,40.5 M15.6,45.05L15.8,45.05 15.8,45.45 15.6,45.05 M28.55,45.8Q28.85,46.05 29.2,47.05L28.9,47.25 28.55,47Q28.55,47.25 28.3,48.55L27.65,48.7 27.65,47.9Q28.25,46.75 28.25,46.45 28.3,46.5 28.45,46.65L28.75,46.3Q28.55,45.9 28.55,45.8 M27.3,49.25L26.95,49.95Q26.8,50.35 26.35,50.3 26.65,50 26.75,49.05L27.3,49.25 M30.15,47.05Q31,46.85 30.9,45.9 31.2,46.95 31,47.5L30.15,47.4 30.15,47.05 M30.3,48.85Q30.3,49.65 29.75,50.35L29.35,50.05Q29.35,49.7 29.6,49.5L29.9,49.65 30.15,48.55 30.3,48.85 M29.4,49.1L29.2,49.5 29,49.45 29.2,49.05 29.4,49.1 M29.9,48.3L29.4,48.25 29.6,47.1Q29.95,48.05 30.15,48.5L29.9,48.3 M30.35,47.6L30.6,47.6 30.6,48.45 30.35,48.45 30.35,47.6 M32.65,37.6L32.45,37.9 32.25,37.85 32.45,37.45 32.65,37.6 M32.65,37.4Q32.85,37.4 33.2,37.05 33.2,37.5 32.85,37.75L32.65,37.4 M32.15,38.35Q31.8,39.95 31.4,40.9 31.15,40.5 31.55,39.55L31.65,39.85 32.15,38.35 M32.75,42.1Q32.8,42.15 33.25,42.75L32.75,42.8Q32.4,43.6 32.45,43.8 32,43.8 31.45,45 31,45.15 30.95,45.15 31.2,43.8 31.65,43.25 31.945,43.25 31.95,43.45L31.95,43.05Q31.95,42.75 31.6,42.4 31.9,42.1 32.95,40.5 33.05,40.101 32.4,40.1 32.554,40.096 33.2,39.45 33.4,39.8 33.4,40.5 33.4,41.15 33.2,41.35L32.35,42.3Q32.45,42.4 32.75,42.1 M31.75,41.95L31.55,41.8 31.75,41.5 31.95,41.55 31.75,41.95 M33.6,42.5L33.6,41.8 33.85,41.8 33.85,42.5 33.6,42.5 M30.15,45.9Q30.4,45.55 31,45.3 30.7,46.1 30.3,46.4 30.3,46.1 30.55,45.85 30.45,45.75 30.15,45.9 M29.4,50.8Q29.1,50.5 29.1,50.4L29.7,50.4Q29.55,50.75 29.4,50.8 M28.15,50.4Q28.25,50.4 28.55,49.75 28.65,49.85 28.65,50.6L28.15,50.4 M28.15,52.1Q28.05,52.1 27.75,51.95L28.15,51.55 28.15,52.1 M26.1,51.4L26.1,52.1Q25.75,52.4 25.65,52.75L25.25,52.55 25.7,51.3 26.1,51.4 M25.5,51.4L25.1,51.2 25.8,50.1 25.5,51.4 M26.95,51.4Q26.65,51.1 26.65,51.5 26.45,51.15 26.45,50.95 26.95,50.95 26.95,51.4 M27.05,54L26.85,54.4 26.65,54.25 26.85,53.95 27.05,54 M26.45,55.15L26.45,56 26.25,55.15 26.45,55.15 M28.05,53.45L27.5,53.45 28.05,52.85 28.05,53.45 M23,54Q22.65,54.35 22.45,54.35 22.45,53.8 22.65,53.8L23,54 M24.6,57.45L25,57.85 24.8,57.95 24.45,57.6 24.6,57.45 M25.85,56.2Q25.65,56.05 25.2,56.05L25.9,55.85 26.05,56.6Q25.75,56.4 25.85,56.2 M49.15,55.45L48.95,55.85 48.75,55.8 48.9,55.4 49.15,55.45 M49.75,53.95L49.75,54.95 49.25,54.85Q49.4,54.7 49.75,53.95 M49.95,56.7L49.2,56.7 49.95,56.1 49.95,56.7"/><path fill="#FFF" d="M31.95,49.45L31.95,48.9 31.65,48.9 31.65,49.45 31.95,49.45"/><path fill="#FFF" d="M39.6,47.7L39.8,47.1 39.55,47.1 39.4,47.65 39.6,47.7"/><path fill="#FFF" d="M39.9,48.45L39.7,48.85 39.9,48.9 40.1,48.5 39.9,48.45"/><path fill="#FFF" d="M47.15,60.95L47.7,60.95 47.7,60.7 47.15,60.7 47.15,60.95"/><path fill="#FFF" d="M140.7,29.9Q138.45,27.5 137.55,27.05L137.3,26.5Q136.1,25.5 135.85,25.5 135.1,25.5 134.25,26.2 132.15,27.8 130.8,29.3L130.2,29.55 128.35,31.7Q127.55,32.8 127.45,33.05 127,34.2 127,37 127,37.2 126.8,37.75 126.8,38.05 127.3,40.5 127.4,40.65 127.5,40.8 127.2,41.25 126.85,41.95 124.85,44.7 124.8,44.85 124.25,45.65 124.2,46.05 123.65,46.6 123.45,46.65 123.3,47.2 123.05,47.45L121.95,48.45 121.2,49.55Q120.75,50.15 119.9,50.3L119.55,51.6Q119.45,51.6 119.05,51.15 117.05,52.65 116.2,52.65L114.9,52 114.5,51.15Q114.25,50.6 114.25,50.05 114.25,49.4 114.5,48.95 114.15,48.95 114.15,48.65 114.65,47.05 114.8,45.6 115.45,42.45 115.1,41.1 115.6,40.4 115.6,40.15 115.6,39.3 115.45,39.3 114.7,38.85 112.2,38.85 112.1,38.85 112,39 111.95,39.15 111.8,39.15 110.75,39.15 110.55,38.95L107.9,43.8Q108.35,43.8 108.45,43.8L107.5,44.35Q106.7,45.6 106.1,46.65 105.45,48 104.65,48.55 104.95,49.85 103.75,50.1 103.45,51.05 103,51.3 103,51.15 102.95,51 102.9,50.8 102.75,50.8 102.65,50.95 102.4,50.95L101.75,50.1Q101.2,47.05 101.2,45.45L101.4,43.85Q101.4,42.288 101.675,40.25 99.751,38.087 96.45,40.25 95.75,41.3 94.85,43 94.2,43.35 93.8,44.35 93.7,44.55 93.8,44.65 93,45.35 93.25,45.8 93.05,45.85 92.95,45.75 92.95,45.85 92.95,46.1 92.65,46.1 92.6,46.2L91,48.1Q90.4,48.75 90.1,49.7 90,49.7 89.75,49.45 88.65,50.1 88.65,50.75L88.75,51.1Q87.35,51.95 86.6,52.95 84.95,54.65 83.65,55 83.45,54.7 83.45,54.15 83.45,53.2 84.6,50.75L86.05,47.45Q86.7,45.45 88.25,43.4 88.496,43.007 90.725,40.25 89.26,38.478 84.25,40.25 84.108,40.519 84.05,40.75 83.85,40.95 83.75,41.2 82.45,42.35 82.15,42.95 82.05,43.15 82.05,43.35 81.9,43.5 81.8,43.7 81.5,44.15 81.5,44.25L75.2,49.9Q73.7,51.1 72.6,51.4 70.7,52.5 70.55,52.5 69.4,52.5 69.3,48.25L69.4,47.65Q69.7,43.15 69.9,42.5L70.3,41.15Q71,37.35 71,36.8L70.55,33.65Q68.6,32.65 68.65,32.55 67.05,33 66.75,33 66.45,32.7 66.25,32.7 65.7,32.7 65.3,33.15L63.6,36.2 63.25,36.3Q63.25,36.7 62.8,37.7 62.35,38.65 62.35,39.05L61.75,39.5Q61.5,40.15 61.35,40.35L60.3,42.35Q59.55,43.65 58.9,44.15 58.65,43.95 58.55,43.85L58.9,42.95Q59.25,40.85 59.25,39.5 59.25,37.8 58.55,37.45L57.85,37.3Q56.95,36.55 56.6,36.05 55.75,35.7 55.3,35.7L54.45,35.85Q53.85,40.05 53.6,45.15 53.7,45.3 53.6,51.35L53.8,51.6 54.2,55.45Q54.45,55.7 54.5,55.85L54.45,56.65Q56.65,59.5 56.95,59.5 57.45,59.5 57.65,59.25 57.7,59.5 57.65,59.7 58.55,60.3 58.65,60.3L59.1,60.3Q59.55,59.2 60,58.75 60.75,55.9 60.75,54.95 60.5,54.35 60.55,54.15 60.6,54.15 60.8,54.25 61,54.25 61.15,53.5 61.35,52.65 61.35,52.55 61.35,51.8 61.75,50.75L62.6,48.7 62.4,48.05Q63.25,45.3 63.85,44.2L65.3,40.8 65.45,40.8Q65.85,41.75 65.85,42.65 65.85,42.85 65.6,43.35 65.6,45.6 65.65,45.25 65.65,45.5 65.3,46.55 65.3,46.6 65.65,47.65L65.6,48.7 66.1,50.8Q67.6,54.35 68.7,55.3L69.4,56.25Q70.95,57.3 71.8,57.3L72.65,57.3Q74.1,57.3 75.5,56.45 76.75,55.85 78.7,53.95 78.85,53.8 79,53.7 79.05,55 79.5,55.7 81,57.5 82.55,58.15 83.35,58.9 83.45,58.95 84,59.35 84.65,59.35L85.85,58.75Q86.8,58.35 89.6,55.7 89.7,55.5 89.7,55.25L91.5,53.85Q92.75,52.35 92.8,51.4 93.2,51 93.35,50.95L93.75,49.5 96.3,45.6Q96.3,44.95 96.4,44.6 96.45,43.8 97.05,43.8 97.55,44.35 97.7,44.75 97.75,45.2 97.65,45.8 97.95,47.45 98.55,49.95L99.75,51.8Q100.25,52.65 100.5,52.65 100.75,52.65 100.8,52.55 102.3,54.4 103,54.4 103.2,54.4 103.85,54.75L105.85,54.55Q106.1,54.55 109.1,50.7L108.75,50.95Q108.5,50.75 108.5,50.6L109.5,49.9 109.95,49.9Q111,52.7 111.8,54L112.75,54.45 114.3,55.8Q115.75,56.85 116.45,56.85 116.75,56.85 117.1,56.6 117.25,56.6 117.2,56.75 117.2,56.85 117.3,56.85 117.55,56.85 118.5,56.25 118.6,56.25 118.65,56.35 118.7,56.4 118.85,56.4 119.3,56.4 120.6,55.2 123.45,53.75 127.1,47.5 127.15,47.25 127.1,47L128.25,44.65Q128.7,43.6 129,42.85 130.45,44.55 132.1,45.5 134.45,47.05 136.1,49.25 137.7,51.35 137.7,52.75L137.55,53.4Q137.5,53.7 137.55,54.15L135.9,55Q134.3,56.45 134.05,56.45 133.85,56.45 133.75,56.6L133.65,56.65Q133.95,56.65 134,56.8L131.35,58.65Q130.95,60 130.95,59.85 130.95,60.3 131.7,60.3L131.95,59.5Q132.2,59.75 132.2,59.95 132.8,59.65 132.95,59.55 132.8,60.15 132.2,61L133.35,60.55 135.9,61.95 136.45,61.95Q136.45,61.8 136.3,61.6L136.1,61.35 137.85,61.8 137.95,61.35 138.1,61.7Q138.1,61.35 138.25,61.2L138.35,61.45Q138.4,61.7 138.55,61.7 138.85,61.7 139.65,61.5 140.75,61.5 140.9,60.6 141.05,59.15 141.4,58.5L141.4,53.75Q139.75,48.7 138.9,47.75 136.75,44.15 134.75,42.65 133.6,41.8 132.25,40.3 130.8,38.5 131.1,37.75L133.4,35.5Q135.3,34.15 135.9,34.15 136.05,34.15 136,34.3 136,34.4 136.1,34.4 136.4,34.4 137.35,33.8 137.65,33.8 139.55,34.25L140.1,34.15Q140.45,34 140.6,34.15 140.6,33.55 140.95,32.85 141.5,32.3 142,32L141.6,31.55Q140.75,30.15 140.7,29.9 M14.5,35.7Q14.45,36.7 14.25,37.5 14.25,37.15 14.15,36.75 14,36.45 14,36.4 14,36.35 14.5,35.7 M28.55,45.8Q28.85,46.05 29.2,47.05L28.9,47.25 28.55,47Q28.55,47.25 28.3,48.55L27.65,48.7 27.65,47.9Q28.25,46.75 28.25,46.45 28.3,46.5 28.45,46.65L28.75,46.3Q28.55,45.9 28.55,45.8 M29.4,50.8Q29.1,50.5 29.1,50.4L29.7,50.4Q29.55,50.75 29.4,50.8 M132.45,57.95L132.85,57.75 132.95,57.95 132.45,58.15 132.45,57.95 M121.95,53L121.75,53.2 121.55,52.95 121.7,52.8 121.95,53"/><path fill="#FFF" d="M289.425,42.5Q287.359,40.538 284.9,42.5 284.878,43.052 284.75,43.65 281.9,47.85 281.55,48.85L281.05,49.05Q280.85,49.7 280.75,49.75L276.45,53.95Q275.9,53.95 275.6,54.55 274.75,54.25 274.75,53.8 274.75,52.75 276.2,47.6 276.7,46.75 276.7,46.4 276.7,45.65 276.8,45.6 277.6,44.75 277.6,44.65 278.019,43.57 278.525,42.5 277.051,40.774 272.7,42.5 272.643,42.536 272.6,42.55 272.6,42.7 272.6,42.8L271.5,44.2 271.15,44.55Q270.65,45.45 270.5,45.6 268.1,48.4 266.4,49.7 263.75,51.8 261,53.15 260.3,53.4 259.85,53.4 257.85,54.65 257,54.65 255.25,54.65 255.25,53.45 255.25,53.25 256.2,51.9L258.95,48.95Q260.25,47.15 260.55,46.45 261.5,45.35 262.7,43.15L263.025,42.5Q261.238,41.1 259.45,42.5 259.427,42.55 259.4,42.6 258.15,44.65 257.5,45.65 255.75,47.4 255.15,47.9L255.15,47.1Q255.071,46.823 256.525,42.5 255.543,41.22 252,42.5L252,42.225 251.95,42.55Q250.85,45.05 251,46.6 250.7,47.25 250.8,51.8 250.2,52.6 248.45,53.8L245.75,55.45Q245.2,55.8 245,55.9 244,55.9 244,54.15 244,53.85 244.55,51.9L244.8,49.9Q246.55,46.1 247.2,45 249,40.35 249.25,38.55L248.75,38.9Q249.25,38.4 249.25,38.1 245.95,33.45 236,30.25 234,29.55 234.25,29.5 234.1,29.5 234,29.7 233.9,29.9 233.8,29.9 233.45,29.9 233.2,29.75 233.2,30.35 232.8,31.2L233.35,31.2 232.9,31.6Q233.2,33.05 233.2,33.6 233.4,34.9 233.75,36L234,36.15Q234.25,36.4 234.25,36.6 234.25,37 233.75,37.6 234.05,39.95 234.05,42L234.05,43.2Q232.35,45.95 231.95,46.5 230.35,49 229.15,49.9 226.1,52.3 224.2,53.25 222.9,53.65 220.25,54.2 218.5,54.2 218.5,48.75 218.5,45.15 219.65,42.6 220.15,41.55 221.65,41 222.5,40.7 224.45,40.25 228.4,38.9 229.55,37.9 230.7,36.7 230.9,35.7 230.819,35.063 230.675,34.5 228.577,33.292 225.55,34.5 225.908,34.912 226.2,35.35 222.95,36.5 222.1,37L221.4,37 221.4,36.4Q221.4,35.929 222.475,34.5 219.55,33.31 216.625,34.5 215.644,36.698 215.05,38.7 213.1,38.85 212.2,38.85L207.4,38.65Q204.25,38.65 204.25,41 204.25,40.6 204.55,44.55 204.85,47.8 204.6,48.45 203.05,46.95 202.15,43.05 201.35,39.65 201.35,37.7 201.35,36.45 201.6,35.8 201.5,33.25 200.1,33.2 199.9,33.2 199.65,33L199.45,32.8 198.55,33.75Q197.9,33.1 197.25,33.5 196.75,33.75 196.05,34.85 195.9,35.45 195.9,36.3 195.95,36.6 196,36.9 195.7,36.85 195.4,36.85 195.1,36.85 195.1,37.25L193.05,37.05Q191.55,36.85 190.15,36.5 189.4,36.3 186.9,34.65 185.65,32.75 183.15,30.8 182.95,30.8 183,31 183,31.2 182.85,31.2 182.799,31.166 182.75,31.125 181.336,34.938 182.75,38.75L183.05,38.75Q183.1,38.95 183.75,39.95 184.25,40.8 184.25,41.1L184.2,41.4Q183.9,41.55 184.35,41.55 184.5,41.55 184.5,41.45 184.55,41.35 184.65,41.35 184.8,41.35 185.1,41.75 185.45,42.55 185.65,42.8L185.3,43.2 186.2,43.45Q186,44.15 186.3,45.9L186.5,46.1 186.5,47.7 186.2,47.6Q186.2,48.7 185.6,49.75L184.35,51.6Q183.718,52.593 182.75,53.375 181.818,55.95 182.75,58.525L183.25,58.65Q183.45,58.65 184.25,58.2 185.1,57.7 185.25,57.7 186,56.9 186.05,56.3L186.7,56.2 186.65,55.65Q186.65,55.55 187,55 187.1,55.1 187.1,55.5 188.85,53.2 188.85,52.75 188.85,52.5 188.75,52.35 188.9,52.35 189,52.5 189.1,52.6 189.25,52.6 189.6,52.6 190.2,50.55 190.9,48.6 190.9,47.65 190.5,47.4 190.5,46.5 190.9,44.35 190.9,44.05 190.9,42.15 190.3,40.55 191,40.5 192.75,40.55 195.45,40.55 196.65,39.65 197.7,43.7 200.25,50.6L200.3,51.75 200.95,52.3Q203.7,57.85 206.2,57.9L206.45,58.25Q206.7,58.55 206.9,58.55 207.2,58.55 207.9,58.35 209.05,51.9 209.1,44.8 209.35,43.4 210.35,42.95 211.4,42.7 214.35,42.6 213.95,43.8 213.85,44.4 213.7,47.05 214.4,49.35 217.1,58.35 221.3,58.35 222.05,58.35 224.45,57.6 226.75,56.8 226.9,56.65 231.1,54 233.05,51.9 236.25,48.4 236.25,44.25 236.25,43.9 236.25,43.65 236.35,43.6 236.5,43.55 237.1,42.9 237.45,40.75 238,38.65 238.7,38.05 238.75,36.75 238.8,36.6 238.95,35.85 239.45,35.5 242.3,36 244.95,37.95 244.1,41.25 243.2,42.55 241.9,45.15 241.55,46L241.6,46.7 240.65,48.15 240.5,50.05Q239.85,51.85 239.85,52.3 239.85,53.7 240.65,55.15L241.35,56.9Q241.65,57.05 241.95,57.5 242.2,58.5 242.3,58.65 243.45,60.1 243.95,60.1 244.45,60.1 245,59.55 245.3,60.1 245.85,60.1 247.2,60.1 249.45,58.55 249.85,58.15 250.05,57.75 251.4,56.95 252.3,56.25 255.25,59.55 257.2,59.55L258.45,59.35Q258.35,59.35 260.05,58.75 263.15,57.75 266.25,54.95 268.05,53.35 270,51.05L269.7,52.8Q269.7,54.6 270.2,55.6 270.65,56.55 272.3,58.15 273,58.5 273.3,58.55L274.85,59.55Q275,59.55 275.25,59.3 275.395,59.397 275.4,59.825 275.407,59.349 275.65,59.3 275.85,59.35 275.85,59.75L278.45,58.75Q278.35,58.35 278.7,58.35 278.95,58.35 278.95,58.5 279.45,58.5 279.5,58.05 280.7,56.45 281.7,55.85 282.05,55.35 282.6,54.25 283.45,53.2 283.35,52.8L283.95,52.3 283.8,52.4 283.55,52.2Q284.2,50.8 284.75,50.15 284.9,50.55 285.55,50.55L285.15,50.2 285.4,49.95Q285.95,49.35 286.25,49.25 287,50 287.1,50.35 288.45,52.15 290.35,53.35 292.25,54.55 293.65,54.45L294.25,54.75Q294.4,54.75 294.55,54.6 294.7,54.4 294.8,54.4 295.2,54.4 295.2,54.85 295.75,54.4 295.95,54.4 296.1,54.4 296.25,54.6 296.4,54.75 296.5,54.75 296.8,54.75 297.85,54.4 298.65,54.4 301.2,52.35 302.6,51.3 303.35,50.35L305.8,47.05Q305.8,46.75 306.45,45.3 306.9,44.4 306.9,43.4L306.7,41.95Q306.35,41.6 306.05,41.6 303.15,46.05 298,49.65 298.1,49.85 298,49.95L296.3,50.8Q295.2,51.35 294.75,51.35L292.5,51.5Q291.95,51.5 291.1,50.75 290.25,50 290.15,49.55 289.35,45.65 289.35,44.25 289.35,43.259 289.425,42.5 M27.3,49.25L26.95,49.95Q26.8,50.35 26.35,50.3 26.65,50 26.75,49.05L27.3,49.25 M30.35,47.6L30.6,47.6 30.6,48.45 30.35,48.45 30.35,47.6 M28.25,52.4L28.35,52.85 27.95,52.5 28.25,52.4 M26.9,54.65Q27.15,54.8 27.35,54.8 27.7,53.85 27.7,53.6 27.7,53.65 27.9,54.25 27.9,54.55 27.05,55.4 27.05,55.05 26.7,55.05L26.9,54.65 M283,53.4L282.8,53.8 282.6,53.75 282.8,53.35 283,53.4 M297.2,52.75L297.25,51.95Q297.25,52.15 297.55,52.6L297.5,52.6 297.2,52.75"/><path fill="#FFF" d="M408.85,37.2L408.3,37.25Q406.5,38.5 406.4,39.05 406.35,38.9 406.05,38.9 406.35,38.9 403.2,40.6 402.9,40.3 402.75,40.25 402.1,38.9 400.35,36.65 399.35,35.3 398.25,33.4 398.45,32.8 398.5,32.6 398.65,31.65 398,28.75 397.3,28.55 396.85,28.15 396.55,27.85 396.55,27.7 396.4,27.85 396.2,27.85 395.9,27.85 395.75,27.2 395.65,27.3 395.4,27.3 395.3,27.3 395.35,27.15 395.4,27 395.25,27L394.85,27Q394.8,26.9 394.65,26.9 394.65,27.2 394.55,27.2 394.35,27.2 394.35,26.65L394,26.85 393.2,26.45Q392.6,26.45 391.95,27.9 391.95,29.9 392.8,31.6 393.75,33.5 393.75,33.8 393.75,34.85 393,37.3L392.55,37.95 392.6,38.9 392.3,39.55Q390.95,42.5 390.1,43.6L390.05,44.25Q388.2,47.25 385.05,50.75 384.7,51.25 383.95,51.6 383.85,51.9 383.6,52.1 381.4,53.65 380.05,53.65 379.25,53.65 378.6,53.15 377.4,51.95 377.4,51.5 377.4,51.3 378.6,49.7 379.85,48.15 379.85,47.7L380.45,47.3Q380.6,46.85 380.55,46.8 381.45,45.9 381.5,45.45 382.35,43.75 382.55,43.15 383.2,42.5 383.3,42.4 383.55,42.05 383.4,41.75 383.75,41.35 384.5,39.95L385.05,38.7 385.05,38.5Q382.7,37.06 379.775,38.5L379.25,40.6Q379.1,40.45 379,40.55 377.9,41.35 378.2,42.6L377.65,42.6Q377.6,42.75 376.85,43.85 376.2,44.85 376.2,45.3L375.85,45.3Q375.75,43.95 376.05,42 376.55,39.1 377,38.65L377.05,38.5Q375.654,37.239 372.9,38.5L372.75,38.9 372.4,41.6 372.4,45.85Q372.85,46.15 372.95,46.4 373,46.65 372.75,46.8 372.85,47.85 372.9,47.95 373.35,50.25 374.5,52.6 375.7,54.95 377.3,56.05 379.75,57.7 380.75,57.7 381.1,57.7 382.1,57.45 383.15,57.2 383.8,57.2L384.3,56.85Q385.6,56.25 387.8,54.4 390.5,51.6 391.9,49.9 392.3,49.25 392.35,48.85 393.35,47.95 394.15,46.3L395.35,43.85 395.8,43.15 397.3,38.85Q397.45,38.25 397.65,38.3L399.2,39.9Q400.55,41.85 400.55,42.85 400.55,43.3 399.5,44.15 398.7,44.65 398.3,45L397.2,46.1Q396.4,46.85 396.4,47.25 395.7,47.55 395.35,48.25 394.5,49.75 393.9,50.35 393.75,50.5 393.675,50.75 397.131,51.867 398.725,50.75 399.027,50.096 399.9,49.15L399.65,49.1 400.65,47.85Q401.1,47.2 401.75,46.85 402.1,48.9 402.2,49.7 402.2,50.238 402,50.75 402.584,52.24 405.75,50.75 405.705,49.508 405.5,48.4 405.259,47.242 405.25,47.625L405.25,46.7Q404.45,44.6 404.45,44.25 404.45,43.6 405.75,42.3L408.8,38.5Q408.4,38.75 407.4,39.15L407.3,38.85 408.85,37.2 M365.05,38.3Q365.55,39.65 365.55,40.05L365.25,39.7Q365.15,39.75 364.55,40.05L364.8,38.45 365.05,38.3"/><path fill="#FFF" d="M492.35,42.75Q492.061,44.203 492.05,44.025 492.058,44.266 492.3,44.75 491.8,48.55 492.7,51.9 493.65,54.95 494.6,56.3 495.45,57.6 497.25,58.35 498.85,59.1 500.25,59.1 501.1,59.1 502.9,58.15 504.35,57.45 505.2,56.65L507.45,54Q509.5,51.6 509.9,50.4 510.9,47.55 510.9,46.65L510.85,46 511.25,45.3 511.25,42.75Q508.15,41.064 505.05,42.75 505.2,43.821 505.2,44.6 505.2,44.7 505.4,45 505.55,45.35 505.55,45.5 505.55,45.85 505,47.5 504.3,49.35 503.75,50.05 501.85,52.05 500.05,53.6 498.2,54.55 497.9,54.55 497.2,54.55 497.05,53.05 497.05,50.15 499,44.05L499.575,42.75Q497.175,41.071 492.35,42.75"/><path fill="#FFF" d="M530.7,45.15Q531.108,43.78 531.425,42.75 528.671,40.988 525.525,42.75 525.5,42.984 525.5,43.25 525.5,44.2 523.3,46.7L520.75,49.85Q520.2,50.05 520,50.1L519.2,51.4 518.85,51Q518.7,51.6 518.7,50.55 518.7,49 520.9,45.05L522.3,42.75Q520.813,41.437 517.575,42.75L514.9,48.65Q514.5,49.6 514.5,51.95 514.5,52.65 515.8,54.95 517.6,57.1 518.05,57.5 519.65,57.4 521.7,55.5 522.15,55.1 525.1,51.8L525.55,51.8 528.6,57.1Q530.8,60.35 534.15,60.35 535.2,60.35 536.85,59.45L538.7,58.55Q538.9,58.55 539.05,58.7L538.9,59.1Q539.05,58.9 539.3,58.9 540.45,58.9 541.95,61.7 543.55,62.8 544.1,63.35 545.2,63.95 547.55,64.65 548.5,65 548.9,65.1L550.3,65.1Q550.65,65.1 551.05,64.25 551.1,63.95 551.35,63.15 553.45,58.75 553.15,55.05 553.5,54.25 553.5,54.05L553.475,52.5Q550.776,50.588 548.65,52.5L548.45,55.3Q546.35,57.1 545.8,57.1 545.25,57.1 544.2,56.7 544,56.6 544,56.25 544,54.943 545.825,52.5 543.35,50.5 538.875,52.5 538.167,53.072 537.45,53.55 537.1,53.8 536.6,53.8 535.3,54.75 534.95,54.95 533.5,55.9 532.8,55.9 531.7,55.9 530.9,53.85 530.3,52.3 530.2,50.8L530,50.1Q530,47.7 530.7,45.15 M26.1,51.4L26.1,52.1Q25.75,52.4 25.65,52.75L25.25,52.55 25.7,51.3 26.1,51.4 M25.5,51.4L25.1,51.2 25.8,50.1 25.5,51.4 M26.95,51.4Q26.65,51.1 26.65,51.5 26.45,51.15 26.45,50.95 26.95,50.95 26.95,51.4"/></g><g id="Scene 1_0.0"><path fill="#FFF" d="M178.45,34.6L178.25,35.05 178.45,35.2 178.7,34.75 178.45,34.6"/><path fill="#FFF" d="M295.05,27.25L295.6,27.25 295.8,26.85Q295.6,26.65 295.05,26.65L295.05,27.25"/><path fill="#FFF" d="M294.6,29.85L295.15,28.25 295.15,27.65Q294.95,28.45 294.95,28.25 294.2,30.4 294.05,31.3 293.45,32.3 293.35,32.4 293.65,32.35 294.15,31.3 294.3,30.5 294.6,29.85"/><path fill="#FFF" d="M292.1,35.5L291.95,36.25 292.2,36.25 292.35,35.5 292.1,35.5"/><path fill="#FFF" d="M102.85,22.05Q102.65,22.2 102.55,22.2 102.4,22.2 102.2,22.05 102,21.9 101.85,21.9 101.55,21.9 101.55,21.95 100.75,23 100.7,23.45 99,30.8 98.85,31.3L98.35,31.35Q96.6,31.1 95.85,30.75 95.5,30.75 94.45,31.1L94.05,30.75Q94.05,31.3 93.8,31.55L93.15,31.35Q92.3,31.35 91.5,32.2 89.55,33.95 87.7,35.9L87.65,35.85 87.05,35.85Q86.8,36.5 86.65,37 86.55,37.1 86.45,37.2 86.45,37.3 86.2,37.75 85.443,38.791 84.95,39.25 84.927,39.276 84.9,39.3 84.47,39.822 84.25,40.25 86.813,42.177 90.725,40.25 90.759,40.201 90.8,40.15 91.138,39.777 91.5,39.425 91.588,39.337 91.675,39.25 92.8,38.159 94.15,37.2 96.2,35.65 97.45,35.6L97.9,37.05 97.15,38.5 96.85,40.25Q98.97,42.008 101.675,40.25 101.693,40.2 101.7,40.15 101.826,39.678 101.95,39.25 102.257,38.319 102.6,37.6 102.85,37.25 103.15,37.25 104,37.8 104.4,37.9 104.6,37.6 104.6,37.4L103.85,34Q103.85,32.65 104.65,30.35 105.35,28.75 105.8,28.05 106,27.25 105.9,27.1 107.25,25.7 107.55,25.2 107.25,24.9 107.25,24.75 106.8,24.75 106.65,24.6 106.95,24.55 106.95,24.15 106.95,23.75 106.6,22.75L106.6,22.1Q105.4,22.1 105.85,21.95 104.45,22.15 103.8,22.1L103.15,21.9Q103,21.9 102.85,22.05"/><path fill="#FFF" d="M180.75,31.4Q180.4,31.9 180.3,32.3 180.1,32.5 179.7,32.6L179.7,33.05Q180,33.05 180,33.35L178.05,36.5Q177.85,36.45 177.85,36.05L176.25,39.55Q175.25,41.5 173.85,42.15L173.65,42.8 171.1,45.45Q170.85,45.85 170.55,45.85 170.55,46.65 170.3,46.9 169.25,47.4 168.7,47.95 167.5,49.55 166.1,50.6L163.55,52.5 163,53.2Q161.45,53.75 160.75,54.2 159.15,55.35 158.45,55.6 158.25,55.8 156.3,56.65 154.3,57.4 154.15,57.4 153.803,57.4 153.5,57.325 151.4,56.782 151.4,52.5L151.25,51.65 151.9,44.85Q151.7,44.6 151.7,44.15 151.7,43.85 152.3,42.2 152.9,40.4 153,39.25 153.043,38.123 153.5,37 153.57,36.823 153.65,36.65 153.568,36.638 153.5,36.6 153.277,36.471 153.2,36.05L154.25,33.95Q153.95,32.5 155.45,31 157.05,29.55 158.5,29.55 159.15,29.55 160.15,30.4 161.25,31.25 161,32.2 161.3,32.35 161.3,32.5 160.4,34.55 160.4,35 159.9,35.85 159.95,35.9 160.6,35.25 161.15,35.25 161.35,35.25 161.45,35.45 161.55,35.6 161.7,35.6 162.15,35.6 164.15,33.45 164.7,31.9 165.1,29.7L165.3,29.55Q165.65,29.55 165.8,29.1L165.9,28.45Q165.9,26.85 162.85,25.6 162.85,26.4 162.65,26.45L162,26.3Q161.05,26.3 159.85,27 158.65,27.6 158.05,27.7 157.75,28.45 156.7,28.7L156.4,28.35Q155.55,28.65 155.4,28.95L155.6,29.3 154.65,30.55 154.65,29.75 153.5,30.475 153.45,30.5Q153.477,30.531 153.5,30.55 153.737,30.863 153.6,31L153.4,31.3Q152,32.2 151.1,34.05L149.65,37.2Q148.45,39.7 147.7,41.6 147.6,41.95 146.55,46.35 146.205,47.777 146.2,47.55 146.2,47.773 146.2,49.1 146.25,50.75 146.6,52.3 146.85,53.8 147.7,55.45L148.15,56.45Q151.05,59.1 152.2,59.7 152.802,60.021 153.5,60.225 154.542,60.5 155.8,60.5 158.65,60.5 163.05,58.05 165.7,56.7 166.7,55.8L169.05,53.55 169.65,52.55Q170.1,51.7 170.55,51.7L169.7,53.25 170.8,52Q171.55,50.35 171.8,50.35 172.15,50.35 172.2,50.4 171.95,51.05 171.95,51.35L173,50.15Q174.2,50.9 174.2,53.05 176.75,57.45 179.05,58.35 179.85,58.75 180.6,58.75 180.95,58.75 181.8,58.5 182.1,58.45 182.6,58.5L182.75,58.525Q184.672,55.95 182.75,53.375 181.573,54.342 179.9,55 179.35,54.25 179.15,53.55 179.75,52.65 179.75,52.35 179.75,52.15 179.45,52 179.15,51.9 179.15,51.8 179.15,51.65 179.3,51.45 179.4,51.3 179.35,51.3 179.15,50.5 179.15,50.2 179.4,47.5 180.55,44.05L182.45,38.75 182.75,38.75Q185.48,35.12 182.75,31.125 182.229,30.8 182,30.8 181.6,30.8 180.75,31.4"/><path fill="#FFF" d="M219.15,30.4L218.95,30.7Q218.45,31.45 218.55,31.6 218.3,31.8 217.95,31.8 217.22,33.185 216.625,34.5 219.55,36.162 222.475,34.5 222.775,34.111 223.15,33.65 223.55,33.2 224.2,33.2 224.6,33.2 225.3,34.2 225.435,34.348 225.55,34.5 227.835,36.071 230.675,34.5 230.261,32.984 229.35,32L226.65,30.9Q224.35,30.6 223.6,30.35 223.15,30.1 222.95,30.1L222.35,30.1Q222.35,30.5 222.15,30.5L221.75,30.1Q220.95,30.1 220.75,30.15 219.35,30.55 219.15,30.4"/><path fill="#FFF" d="M258.75,31.6Q257.05,33.15 255.2,35.65 254.6,36.4 254.05,37.85 253.75,38.85 253.15,39.15 252.9,40.25 252.5,41.3L252.1,41.6 252,42.225 252,42.5Q253.354,43.863 256.525,42.5 256.911,41.365 257.4,39.95 257.55,39.95 258.45,38.45 259.15,37.15 259.95,37.25 260.35,38.65 260.35,39.5 260.35,40.811 259.45,42.5 260.564,43.75 263.025,42.5L264.45,39.55Q264.8,37.45 264.75,36.8 264.95,36.6 265.25,36.45L265.25,35.25Q264.3,34.65 264.05,34.05 260.1,31.8 259.85,31.8 259.65,31.95 259.35,31.95 259.2,31.95 259,31.8 258.8,31.6 258.75,31.6"/><path fill="#FFF" d="M293.85,22.15Q291.85,21.15 291.5,21.15 289.75,21.15 289.05,22.1 288.9,22.25 288.6,23.35 288.3,24.3 288,24.45L287,26.6 286.4,28.7Q286.55,29.15 286.45,29.45L285.45,31.4Q283.45,30.6 283,30.6L282.6,30.9 282.3,30.6 281.6,30.5Q281.3,30.75 281.05,30.75 280.3,30.5 280.25,30.5 280.25,30.7 279.95,30.9L279.9,30.75 279.95,31Q279.95,32 278.75,32.5L278.65,32Q277.25,34.4 277,34.65 277.1,35 276.9,35.2 276.9,35.05 276.65,35.05 276.4,35.05 276.1,35.65L275.75,37.2Q274.85,38.7 273.15,41.8 273.2,41.9 273.2,42L273.05,42.2Q272.837,42.413 272.7,42.5 275.43,43.595 278.525,42.5 280.025,39.358 282.3,36.3 282.5,35.9 282.55,35.45 283,35.4 283.3,34.75L284.15,34.75Q284.15,36.4 284.2,36.45L284.65,37.95 284.65,39.35Q284.75,39.65 285.15,40.75L284.8,41.1Q284.943,41.759 284.9,42.5 286.669,43.979 289.425,42.5 289.602,40.998 290.1,40.4 289.95,40.4 289.7,40.15L289.9,39.9 290.05,40.25Q290.4,39.15 290.35,39.15L290.15,38.9 291.3,36.6Q291.55,36.85 291.6,37.05 291.6,36.4 291.4,36.6 291.25,35.95 292,35.05L292.8,34 292.7,34 292.55,33.75Q293.15,33 293.2,32.75L293.1,32.4 294.45,27.05Q294.25,26.95 294.25,26.8 294.55,25.95 294.95,25.85 295.25,26.5 295.45,26.45L296.4,24.25 295.55,23.4 294.85,23.15 293.85,22.15 M295.2,26Q295.2,25.656 294.85,25.65 295.247,25.648 295.25,25.5 295.25,26 295.2,26"/><path fill="#FFF" d="M381.65,30.75Q381.25,30.75 380.65,30.25 380.55,30.2 380.5,30.15 380.4,30.15 380.35,30.15 380.05,30.1 379.7,30.1 379.8,29.85 379.55,29.65 379.25,29.45 379.25,29.3L378.85,29.55Q378.8,29.55 378.85,29.5L378.4,29.05Q378.4,29.55 377.9,29.55L377.4,29.55Q377.25,29.55 377.25,29.3 376.65,29.95 376.55,30.3L376.05,30.1 374.5,33Q374,34.5 373.9,35.25L373.55,35.65 373.5,36.8 372.9,38.5Q374.702,40.137 377.05,38.5L377.9,36.05Q378.75,34.25 379.65,34.25 380.2,34.25 380.45,34.65L380.55,34.65Q380.679,34.866 380.275,36.5 380.225,36.757 380.15,37.05L379.775,38.5Q381.698,40.108 385.05,38.5L385.05,38.1Q385.052,38.15 385.25,38.15 385.5,38.15 385.75,36.85L385.95,35.55Q385.9,35.35 385.75,33.75L384.85,32.85Q384,32.35 382.75,31.1 382.8,30.95 382.75,30.9L382.3,30.6Q381.9,30.75 381.65,30.75 M385.4,33.8L385.05,33.75 385.2,33.6 385.4,33.8"/><path fill="#FFF" d="M405.75,51.3Q405.75,51.022 405.75,50.75 403.679,48.986 402,50.75 401.913,50.952 401.8,51.15 401.35,51.8 400.85,51.8L399.5,51.95Q399.35,51.95 399,51.6 398.65,51.3 398.6,51.2 398.627,50.996 398.725,50.75 396.685,49.1 393.675,50.75 393.6,51 393.6,51.35L393.75,52.5Q393.8,52.4 394.1,52.4L393.95,52.2 394.4,51.9 394.55,52.1 394.1,52.4Q394.95,52.4 394.65,53.25L395.35,53.45Q395.05,53.75 395.05,54.05 397.55,56.1 397.6,56.1 397.95,56.1 398.05,56.1 397.8,56.3 397.8,56.4 398.2,56.25 399.1,57L400.15,57.7Q400.35,57.7 400.65,57.95L402.7,57.95Q403.65,57.25 403.9,56.45L405,53.95Q405.75,52.1 405.75,51.3 M394.4,51.9L394.55,52.1 394.1,52.4 393.95,52.2 394.4,51.9"/><path fill="#FFF" d="M499.9,30.95Q499.25,30.95 498.2,31.35 497.7,33.45 495.95,34.55L495.95,35.2Q495.6,35.2 495.45,35.4 494.65,37 493.2,38.3 492.64,41.32 492.35,42.75 495.963,45.006 499.575,42.75L502.05,37.25Q502.55,36.65 502.75,36.6L503.6,37.75Q504.35,39.4 504.4,40.7 504.75,41.15 504.8,41.35 504.951,42.103 505.05,42.75 507.86,44.008 511.25,42.75L511.25,41.9 510.5,40.5Q510.05,39.15 509.9,39.05L507.15,35.7 507,35.05Q506.65,34.2 505.6,33.55L504.1,32.4Q502.5,30.95 499.9,30.95"/><path fill="#FFF" d="M527.05,36.5Q527.25,36.75 527.25,37.05 527.25,37.4 526.95,38.75 526.7,40.05 526.75,41.1 525.667,41.23 525.525,42.75 528.181,45.197 531.425,42.75 532.113,40.624 532.45,39.95 533.5,36.2 533.15,35.15 532.9,34.15 531.95,33.05 531.15,32.75 531.1,32.75 529.2,33.05 528.25,32.35 527.5,33.1 526.45,32.6 525.3,32.1 524.15,32.85 522.25,34.8 521.25,36.2 520.1,37.9 518.1,41.6L517.575,42.75Q518.988,44.65 522.3,42.75L523.55,40.7Q524.75,39 525.5,37.65 526.6,36.15 527.05,36.5"/><path fill="#FFF" d="M545.65,26.9Q545.65,27.35 545.95,28.15L547.45,38.35Q547.45,41.1 545.95,43.45L544.3,45.6 542.1,49.3Q540.522,51.158 538.875,52.5 541.386,54.428 545.825,52.5 546.649,51.392 547.85,50.05L548.65,50.05 548.45,50.3 548.65,52.35 548.65,52.5Q550.61,55.394 553.475,52.5L553.2,40.3Q553.2,38.55 553.2,38.5 553.4,38 553.75,37.65 554.7,31.9 554.75,32.3L554.7,30.8Q553.5,28.45 553.1,27.25 552.9,27.05 552.35,27.05 551.75,27.05 551.65,27.2 550.95,26.1 549.85,26.1 549.75,26.1 549.65,26.2 549.55,26.3 549.4,26.3 549.25,26.3 548.55,25.65 547.85,24.95 547.65,24.95L547.15,24.95Q547.4,25.85 547.35,26.1 546.5,25.75 546.2,25.45L546.4,25.7 545.65,26 545.65,26.9"/></g><defs/></svg>